<svg width="20" height="20" viewBox="0 0 20 20" fill="none" xmlns="http://www.w3.org/2000/svg">
<g id="info-circle-filled">
<path id="Shape" fill-rule="evenodd" clip-rule="evenodd" d="M9.99984 18.3332C14.6022 18.3332 18.3332 14.6022 18.3332 9.99984C18.3332 5.39747 14.6022 1.6665 9.99984 1.6665C5.39747 1.6665 1.6665 5.39746 1.6665 9.99984C1.6665 14.6022 5.39746 18.3332 9.99984 18.3332ZM10.6248 13.7498C10.6248 14.095 10.345 14.3748 9.99984 14.3748C9.65466 14.3748 9.37484 14.095 9.37484 13.7498V8.33317C9.37484 7.98799 9.65466 7.70817 9.99984 7.70817C10.345 7.70817 10.6248 7.98799 10.6248 8.33317V13.7498ZM9.37484 6.24984C9.37484 5.90466 9.65466 5.62484 9.99984 5.62484C10.345 5.62484 10.6248 5.90466 10.6248 6.24984C10.6248 6.59501 10.345 6.87484 9.99984 6.87484C9.65466 6.87484 9.37484 6.59501 9.37484 6.24984Z" fill="#0043CE"/>
</g>
</svg>
